<?xml version="1.0" encoding="utf-8"?>
<!-- Generator: Adobe Illustrator 15.1.0, SVG Export Plug-In . SVG Version: 6.00 Build 0)  -->
<!DOCTYPE svg PUBLIC "-//W3C//DTD SVG 1.1//EN" "http://www.w3.org/Graphics/SVG/1.1/DTD/svg11.dtd">
<svg version="1.1" id="Ebene_1" xmlns="http://www.w3.org/2000/svg" xmlns:xlink="http://www.w3.org/1999/xlink" x="0px" y="0px"
	 width="400px" height="420px" viewBox="0 0 400 420" enable-background="new 0 0 400 420" xml:space="preserve">
<g id="lines">
	<line opacity="0.25" fill="none" stroke="#FFFFFF" stroke-miterlimit="10" x1="83.086" y1="215.545" x2="379.378" y2="215"/>
	<line opacity="0.25" fill="none" stroke="#FFFFFF" stroke-miterlimit="10" x1="83.086" y1="234.296" x2="379.378" y2="234"/>
	<line opacity="0.25" fill="none" stroke="#FFFFFF" stroke-miterlimit="10" x1="83.086" y1="253.046" x2="379.378" y2="253"/>
	<line opacity="0.25" fill="none" stroke="#FFFFFF" stroke-miterlimit="10" x1="83.086" y1="271.796" x2="379.378" y2="271"/>
	<line opacity="0.25" fill="none" stroke="#FFFFFF" stroke-miterlimit="10" x1="83.086" y1="290.548" x2="379.378" y2="290"/>
	<line opacity="0.25" fill="none" stroke="#FFFFFF" stroke-miterlimit="10" x1="83.086" y1="309.298" x2="379.378" y2="309"/>
	<line opacity="0.25" fill="none" stroke="#FFFFFF" stroke-miterlimit="10" x1="83.086" y1="328.048" x2="379.378" y2="328"/>
	<line opacity="0.25" fill="none" stroke="#FFFFFF" stroke-miterlimit="10" x1="83.086" y1="346.799" x2="379.378" y2="346"/>
	<line opacity="0.25" fill="none" stroke="#FFFFFF" stroke-miterlimit="10" x1="83.086" y1="365.549" x2="379.378" y2="365"/>
	<line opacity="0.25" fill="none" stroke="#FFFFFF" stroke-miterlimit="10" x1="83.086" y1="384.3" x2="379.378" y2="384"/>
	<line opacity="0.25" fill="none" stroke="#FFFFFF" stroke-miterlimit="10" x1="83.086" y1="28.04" x2="379.378" y2="28"/>
	<line opacity="0.25" fill="none" stroke="#FFFFFF" stroke-miterlimit="10" x1="83.086" y1="9.29" x2="379.378" y2="9"/>
	<line opacity="0.25" fill="none" stroke="#FFFFFF" stroke-miterlimit="10" x1="83.086" y1="46.791" x2="379.378" y2="46"/>
	<line opacity="0.25" fill="none" stroke="#FFFFFF" stroke-miterlimit="10" x1="83.086" y1="65.541" x2="379.378" y2="65"/>
	<line opacity="0.25" fill="none" stroke="#FFFFFF" stroke-miterlimit="10" x1="83.086" y1="84.292" x2="379.378" y2="84"/>
	<line opacity="0.25" fill="none" stroke="#FFFFFF" stroke-miterlimit="10" x1="83.086" y1="103.042" x2="379.378" y2="103"/>
	<line opacity="0.25" fill="none" stroke="#FFFFFF" stroke-miterlimit="10" x1="83.086" y1="121.793" x2="379.378" y2="121"/>
	<line opacity="0.25" fill="none" stroke="#FFFFFF" stroke-miterlimit="10" x1="83.086" y1="140.543" x2="379.378" y2="140"/>
	<line opacity="0.25" fill="none" stroke="#FFFFFF" stroke-miterlimit="10" x1="83.086" y1="159.294" x2="379.378" y2="159"/>
	<line opacity="0.25" fill="none" stroke="#FFFFFF" stroke-miterlimit="10" x1="83.086" y1="178.044" x2="379.378" y2="178"/>
	<line opacity="0.25" fill="none" stroke="#FFFFFF" stroke-miterlimit="10" x1="83.086" y1="196.795" x2="379.378" y2="196"/>
</g>
<g id="count">
	<rect x="12.315" y="343.204" fill="none" width="59.495" height="7.191"/>
	<text transform="matrix(1 0 0 1 37.4087 350.2417)" fill="#FFFFFF" font-family="'OpenSans-Bold'" font-size="9.2607">100,000</text>
	<rect x="12.315" y="305.703" fill="none" width="59.495" height="7.191"/>
	<text transform="matrix(1 0 0 1 37.4087 312.7407)" fill="#FFFFFF" font-family="'OpenSans-Bold'" font-size="9.2607">200,000</text>
	<rect x="12.315" y="268.201" fill="none" width="59.495" height="7.191"/>
	<text transform="matrix(1 0 0 1 37.4087 275.2393)" fill="#FFFFFF" font-family="'OpenSans-Bold'" font-size="9.2607">300,000</text>
	<rect x="12.315" y="230.7" fill="none" width="59.495" height="7.191"/>
	<text transform="matrix(1 0 0 1 37.4087 237.7378)" fill="#FFFFFF" font-family="'OpenSans-Bold'" font-size="9.2607">400,000</text>
	<rect x="12.315" y="193.198" fill="none" width="59.495" height="7.191"/>
	<text transform="matrix(1 0 0 1 37.4087 200.2363)" fill="#FFFFFF" font-family="'OpenSans-Bold'" font-size="9.2607">500,000</text>
	<rect x="12.315" y="155.697" fill="none" width="59.495" height="7.191"/>
	<text transform="matrix(1 0 0 1 37.4087 162.7354)" fill="#FFFFFF" font-family="'OpenSans-Bold'" font-size="9.2607">600,000</text>
	<rect x="12.315" y="118.196" fill="none" width="59.495" height="7.191"/>
	<text transform="matrix(1 0 0 1 37.4087 125.2339)" fill="#FFFFFF" font-family="'OpenSans-Bold'" font-size="9.2607">700,000</text>
	<rect x="12.315" y="80.694" fill="none" width="59.495" height="7.191"/>
	<text transform="matrix(1 0 0 1 37.4087 87.7324)" fill="#FFFFFF" font-family="'OpenSans-Bold'" font-size="9.2607">800,000</text>
	<rect x="12.315" y="43.193" fill="none" width="59.495" height="7.191"/>
	<text transform="matrix(1 0 0 1 37.4087 50.2314)" fill="#FFFFFF" font-family="'OpenSans-Bold'" font-size="9.2607">900,000</text>
	<rect x="12.315" y="5.694" fill="none" width="59.495" height="7.191"/>
	<text transform="matrix(1 0 0 1 29.437 12.7324)" fill="#FFFFFF" font-family="'OpenSans-Bold'" font-size="9.2607">1,000,000</text>
	<rect x="13.143" y="380.705" fill="none" width="59.494" height="7.191"/>
	<text transform="matrix(1 0 0 1 67.3511 387.7422)" fill="#FFFFFF" font-family="'OpenSans-Bold'" font-size="9.2607">0</text>
</g>
<g id="android">
	<polyline fill="none" stroke="#37AA32" stroke-width="3" stroke-miterlimit="10" points="362.238,84.29 274.901,234.296 
		187.563,335.549 100.226,378.3 	"/>
</g>
<g id="apple">
	<polyline fill="none" stroke="#E3000B" stroke-width="3" stroke-miterlimit="10" points="362.238,46.791 274.901,168.669 
		187.563,253.046 100.226,339.299 	"/>
</g>
<g id="windows">
	<polyline fill="none" stroke="#FFED00" stroke-width="3" stroke-miterlimit="10" points="362.238,346.799 274.901,353.174 
		187.563,382.05 	"/>
</g>
<g id="blackberry">
	<polyline fill="none" stroke="#652082" stroke-width="3" stroke-miterlimit="10" points="362.238,339.299 274.901,358.049 
		187.563,377.55 	"/>
</g>
<g id="apple-points">
	<circle fill="#FFFFFF" stroke="#E3000B" stroke-width="2" stroke-miterlimit="10" cx="100.226" cy="339.299" r="3.91"/>
	<circle fill="#FFFFFF" stroke="#E3000B" stroke-width="2" stroke-miterlimit="10" cx="187.564" cy="253.046" r="3.91"/>
	<circle fill="#FFFFFF" stroke="#E3000B" stroke-width="2" stroke-miterlimit="10" cx="274.901" cy="168.669" r="3.91"/>
	<circle fill="#FFFFFF" stroke="#E3000B" stroke-width="2" stroke-miterlimit="10" cx="362.238" cy="46.791" r="3.91"/>
</g>
<g id="windows-points">
	<circle fill="#FFFFFF" stroke="#FFED00" stroke-width="2" stroke-miterlimit="10" cx="274.901" cy="353.174" r="3.91"/>
	<circle fill="#FFFFFF" stroke="#FFED00" stroke-width="2" stroke-miterlimit="10" cx="187.564" cy="382.05" r="3.91"/>
	<circle fill="#FFFFFF" stroke="#FFED00" stroke-width="2" stroke-miterlimit="10" cx="362.238" cy="346.799" r="3.91"/>
</g>
<g id="blackberry-points">
	<circle fill="#FFFFFF" stroke="#652082" stroke-width="2" stroke-miterlimit="10" cx="187.564" cy="377.55" r="3.91"/>
	<circle fill="#FFFFFF" stroke="#652082" stroke-width="2" stroke-miterlimit="10" cx="274.901" cy="358.049" r="3.91"/>
	<circle fill="#FFFFFF" stroke="#652082" stroke-width="2" stroke-miterlimit="10" cx="362.238" cy="339.299" r="3.91"/>
</g>
<g id="android-points">
	<circle fill="#FFFFFF" stroke="#00963E" stroke-width="2" stroke-miterlimit="10" cx="100.226" cy="378.3" r="3.91"/>
	<circle fill="#FFFFFF" stroke="#00963E" stroke-width="2" stroke-miterlimit="10" cx="187.564" cy="335.549" r="3.91"/>
	<circle fill="#FFFFFF" stroke="#00963E" stroke-width="2" stroke-miterlimit="10" cx="274.901" cy="234.296" r="3.91"/>
	<circle fill="#FFFFFF" stroke="#00963E" stroke-width="2" stroke-miterlimit="10" cx="362.238" cy="84.29" r="3.91"/>
</g>
<g id="years">
	<rect x="78.397" y="391.586" fill="none" width="43.658" height="21.829"/>
	<text transform="matrix(1 0 0 1 89.6548 398.625)" fill="#FFFFFF" font-family="'OpenSans-Bold'" font-size="9.2607">2010</text>
	<rect x="165.735" y="391.586" fill="none" width="43.657" height="21.829"/>
	<text transform="matrix(1 0 0 1 176.9922 398.625)" fill="#FFFFFF" font-family="'OpenSans-Bold'" font-size="9.2607">2011</text>
	<rect x="253.073" y="391.586" fill="none" width="43.658" height="21.829"/>
	<text transform="matrix(1 0 0 1 264.3296 398.625)" fill="#FFFFFF" font-family="'OpenSans-Bold'" font-size="9.2607">2012</text>
	<rect x="340.41" y="391.586" fill="none" width="43.657" height="21.829"/>
	<text transform="matrix(1 0 0 1 351.667 398.625)" fill="#FFFFFF" font-family="'OpenSans-Bold'" font-size="9.2607">2013</text>
</g>
</svg>
