<?xml version="1.0" encoding="utf-8"?>
<!-- Generator: Adobe Illustrator 15.1.0, SVG Export Plug-In . SVG Version: 6.00 Build 0)  -->
<!DOCTYPE svg PUBLIC "-//W3C//DTD SVG 1.1//EN" "http://www.w3.org/Graphics/SVG/1.1/DTD/svg11.dtd">
<svg version="1.1" id="Ebene_1" xmlns="http://www.w3.org/2000/svg" xmlns:xlink="http://www.w3.org/1999/xlink" x="0px" y="0px"
	 width="300px" height="300px" viewBox="0 0 300 300" enable-background="new 0 0 300 300" xml:space="preserve">
<g>
	<path fill="#009BB1" stroke="#FFFFFF" stroke-width="2" stroke-miterlimit="10" d="M150,149.997l149.628-10.463
		c5.778,82.639-56.528,154.316-139.166,160.095S6.15,243.099,0.372,160.46C-5.407,77.82,56.899,6.144,139.538,0.365
		C142.843,0.134,146.687,0,150,0V149.997z"/>
</g>
<g>
	<path fill="#EA5437" stroke="#FFFFFF" stroke-width="2" stroke-miterlimit="10" d="M150,149.997L203.753,9.962
		c55.683,21.376,91.715,70.072,95.875,129.572L150,149.997z"/>
</g>
<g>
	<path fill="#C96691" stroke="#FFFFFF" stroke-width="2" stroke-miterlimit="10" d="M150,149.997L176.047,2.278
		c9.79,1.727,18.426,4.123,27.707,7.684L150,149.997z"/>
</g>
<g>
	<path fill="#FFDD00" stroke="#FFFFFF" stroke-width="2" stroke-miterlimit="10" d="M150,149.997V0
		c9.941,0,16.257,0.553,26.046,2.278L150,149.997z"/>
</g>
</svg>
